<svg width="111" height="25" viewBox="0 0 111 25" fill="none" xmlns="http://www.w3.org/2000/svg">
<path d="M23.384 12.48C23.384 14.1867 23.1067 15.76 22.552 17.2C21.9973 18.64 21.2133 19.8827 20.2 20.928C19.1973 21.9627 17.9867 22.7733 16.568 23.36C15.16 23.9467 13.592 24.24 11.864 24.24C10.1467 24.24 8.57867 23.9467 7.16 23.36C5.752 22.7733 4.54133 21.9627 3.528 20.928C2.51467 19.8827 1.73067 18.64 1.176 17.2C0.621333 15.76 0.344 14.1867 0.344 12.48C0.344 10.7733 0.621333 9.2 1.176 7.76C1.73067 6.32 2.51467 5.07733 3.528 4.032C4.54133 2.98667 5.752 2.17067 7.16 1.584C8.57867 0.997332 10.1467 0.703999 11.864 0.703999C13.592 0.703999 15.16 0.997332 16.568 1.584C17.9867 2.17067 19.1973 2.98667 20.2 4.032C21.2133 5.07733 21.9973 6.32 22.552 7.76C23.1067 9.2 23.384 10.7733 23.384 12.48ZM19.56 12.48C19.56 11.1573 19.3787 9.968 19.016 8.912C18.664 7.856 18.152 6.96 17.48 6.224C16.8187 5.488 16.0133 4.92267 15.064 4.528C14.1147 4.13333 13.048 3.936 11.864 3.936C10.6907 3.936 9.62933 4.13333 8.68 4.528C7.73067 4.92267 6.92 5.488 6.248 6.224C5.576 6.96 5.05867 7.856 4.696 8.912C4.33333 9.968 4.152 11.1573 4.152 12.48C4.152 13.8133 4.33333 15.008 4.696 16.064C5.05867 17.12 5.576 18.016 6.248 18.752C6.92 19.4773 7.73067 20.0373 8.68 20.432C9.62933 20.816 10.6907 21.008 11.864 21.008C13.048 21.008 14.1147 20.816 15.064 20.432C16.0133 20.0373 16.8187 19.4773 17.48 18.752C18.152 18.016 18.664 17.12 19.016 16.064C19.3787 15.008 19.56 13.8133 19.56 12.48ZM32.0155 24.256C30.6608 24.256 29.6155 23.8773 28.8795 23.12C28.1542 22.352 27.7915 21.2747 27.7915 19.888V10.384H25.9995C25.8075 10.384 25.6422 10.3253 25.5035 10.208C25.3648 10.08 25.2955 9.89333 25.2955 9.648V8.256L27.9355 7.872L28.6875 3.152C28.7408 2.97067 28.8315 2.82667 28.9595 2.72C29.0875 2.60267 29.2582 2.544 29.4715 2.544H31.2315V7.904H38.4315L39.1995 3.152C39.2422 2.97067 39.3275 2.82667 39.4555 2.72C39.5835 2.60267 39.7542 2.544 39.9675 2.544H41.7275V7.904H46.2555V10.384H41.7275V19.648C41.7275 20.2347 41.8715 20.6827 42.1595 20.992C42.4475 21.3013 42.8315 21.456 43.3115 21.456C43.5782 21.456 43.8075 21.424 43.9995 21.36C44.2022 21.2853 44.3728 21.2107 44.5115 21.136C44.6502 21.0507 44.7675 20.976 44.8635 20.912C44.9702 20.8373 45.0662 20.8 45.1515 20.8C45.2688 20.8 45.3595 20.8267 45.4235 20.88C45.4875 20.9227 45.5568 21.0027 45.6315 21.12L46.6555 22.8C46.1115 23.2693 45.4768 23.632 44.7515 23.888C44.0368 24.1333 43.2955 24.256 42.5275 24.256C41.1622 24.256 40.1168 23.8773 39.3915 23.12C38.6662 22.352 38.3035 21.2747 38.3035 19.888V10.384H31.2315V19.648C31.2315 20.2347 31.3755 20.6827 31.6635 20.992C31.9515 21.3013 32.3355 21.456 32.8155 21.456C33.0822 21.456 33.3115 21.424 33.5035 21.36C33.6955 21.2853 33.8608 21.2107 33.9995 21.136C34.1382 21.0507 34.2555 20.976 34.3515 20.912C34.4582 20.8373 34.5595 20.8 34.6555 20.8C34.8475 20.8 35.0022 20.9067 35.1195 21.12L36.1435 22.8C35.6102 23.2693 34.9808 23.632 34.2555 23.888C33.5302 24.1333 32.7835 24.256 32.0155 24.256ZM59.55 14C59.55 13.424 59.4647 12.8907 59.294 12.4C59.134 11.8987 58.894 11.4667 58.574 11.104C58.254 10.7307 57.854 10.4427 57.374 10.24C56.9047 10.0267 56.3607 9.92 55.742 9.92C54.494 9.92 53.5127 10.2773 52.798 10.992C52.0833 11.7067 51.63 12.7093 51.438 14H59.55ZM51.342 16.112C51.3847 17.04 51.5287 17.8453 51.774 18.528C52.0193 19.2 52.3447 19.76 52.75 20.208C53.166 20.656 53.6567 20.992 54.222 21.216C54.798 21.4293 55.438 21.536 56.142 21.536C56.814 21.536 57.3953 21.4613 57.886 21.312C58.3767 21.152 58.8033 20.9813 59.166 20.8C59.5287 20.608 59.838 20.4373 60.094 20.288C60.35 20.128 60.5847 20.048 60.798 20.048C61.0753 20.048 61.2887 20.1547 61.438 20.368L62.414 21.632C62.0087 22.112 61.55 22.5173 61.038 22.848C60.526 23.1787 59.982 23.4507 59.406 23.664C58.83 23.8667 58.238 24.0107 57.63 24.096C57.022 24.192 56.43 24.24 55.854 24.24C54.7233 24.24 53.6727 24.0533 52.702 23.68C51.742 23.296 50.9047 22.736 50.19 22C49.486 21.264 48.9313 20.352 48.526 19.264C48.1313 18.176 47.934 16.9227 47.934 15.504C47.934 14.3733 48.11 13.3173 48.462 12.336C48.8247 11.3547 49.3367 10.5013 49.998 9.776C50.67 9.05067 51.4807 8.48 52.43 8.064C53.39 7.63733 54.4727 7.424 55.678 7.424C56.6807 7.424 57.6087 7.58933 58.462 7.92C59.3153 8.24 60.0513 8.71467 60.67 9.344C61.2887 9.97333 61.7687 10.7467 62.11 11.664C62.462 12.5707 62.638 13.6053 62.638 14.768C62.638 15.3013 62.5793 15.6587 62.462 15.84C62.3447 16.0213 62.1313 16.112 61.822 16.112H51.342ZM69.094 10.704C69.606 9.66933 70.2247 8.85867 70.95 8.272C71.6753 7.67467 72.5447 7.376 73.558 7.376C73.91 7.376 74.2407 7.41867 74.55 7.504C74.8593 7.57867 75.1367 7.696 75.382 7.856L75.142 10.448C75.0993 10.6293 75.03 10.7573 74.934 10.832C74.8487 10.896 74.7313 10.928 74.582 10.928C74.422 10.928 74.1927 10.9013 73.894 10.848C73.5953 10.784 73.2807 10.752 72.95 10.752C72.47 10.752 72.0433 10.8213 71.67 10.96C71.3073 11.0987 70.9767 11.3013 70.678 11.568C70.39 11.8347 70.134 12.16 69.91 12.544C69.686 12.928 69.478 13.3653 69.286 13.856V24H65.846V7.68H67.846C68.2087 7.68 68.4593 7.74933 68.598 7.888C68.7367 8.016 68.8327 8.24533 68.886 8.576L69.094 10.704ZM75.8805 22.016C75.8805 21.7067 75.9338 21.4187 76.0405 21.152C76.1578 20.8747 76.3125 20.6347 76.5045 20.432C76.7072 20.2293 76.9418 20.0693 77.2085 19.952C77.4858 19.8347 77.7792 19.776 78.0885 19.776C78.3978 19.776 78.6858 19.8347 78.9525 19.952C79.2298 20.0693 79.4698 20.2293 79.6725 20.432C79.8752 20.6347 80.0352 20.8747 80.1525 21.152C80.2698 21.4187 80.3285 21.7067 80.3285 22.016C80.3285 22.336 80.2698 22.6293 80.1525 22.896C80.0352 23.1627 79.8752 23.3973 79.6725 23.6C79.4698 23.8027 79.2298 23.9573 78.9525 24.064C78.6858 24.1813 78.3978 24.24 78.0885 24.24C77.7792 24.24 77.4858 24.1813 77.2085 24.064C76.9418 23.9573 76.7072 23.8027 76.5045 23.6C76.3125 23.3973 76.1578 23.1627 76.0405 22.896C75.9338 22.6293 75.8805 22.336 75.8805 22.016ZM96.803 15.36L93.635 6.944C93.379 6.29333 93.1177 5.46667 92.851 4.464C92.7337 4.96533 92.6057 5.42933 92.467 5.856C92.3283 6.272 92.2003 6.64 92.083 6.96L88.915 15.36H96.803ZM103.891 24H100.995C100.664 24 100.398 23.92 100.195 23.76C99.9923 23.5893 99.8377 23.3813 99.731 23.136L97.811 18.048H87.891L85.971 23.136C85.8857 23.3493 85.7363 23.5467 85.523 23.728C85.3097 23.9093 85.043 24 84.723 24H81.827L90.963 0.959999H94.755L103.891 24ZM109.461 7.68V24H106.021V7.68H109.461ZM110.037 2.752C110.037 3.06133 109.973 3.35467 109.845 3.632C109.728 3.90933 109.563 4.15466 109.349 4.368C109.136 4.57067 108.885 4.736 108.597 4.864C108.32 4.98133 108.021 5.04 107.701 5.04C107.392 5.04 107.099 4.98133 106.821 4.864C106.555 4.736 106.32 4.57067 106.117 4.368C105.915 4.15466 105.749 3.90933 105.621 3.632C105.504 3.35467 105.445 3.06133 105.445 2.752C105.445 2.432 105.504 2.13333 105.621 1.856C105.749 1.57867 105.915 1.33867 106.117 1.136C106.32 0.922665 106.555 0.757332 106.821 0.639999C107.099 0.511998 107.392 0.447998 107.701 0.447998C108.021 0.447998 108.32 0.511998 108.597 0.639999C108.885 0.757332 109.136 0.922665 109.349 1.136C109.563 1.33867 109.728 1.57867 109.845 1.856C109.973 2.13333 110.037 2.432 110.037 2.752Z" fill="white"/>
</svg>
