<svg width="63" height="25" viewBox="0 0 63 25" fill="none" xmlns="http://www.w3.org/2000/svg">
<path d="M7.424 12C8.27733 12 9.024 11.8987 9.664 11.696C10.304 11.4827 10.8373 11.1893 11.264 10.816C11.6907 10.4427 12.0107 10 12.224 9.488C12.4373 8.96533 12.544 8.38933 12.544 7.76C12.544 6.50133 12.128 5.54133 11.296 4.88C10.464 4.21867 9.20533 3.888 7.52 3.888H4.48V12H7.424ZM18.272 24H14.928C14.2667 24 13.7867 23.744 13.488 23.232L8.112 15.472C7.93067 15.2053 7.73333 15.0133 7.52 14.896C7.30667 14.7787 6.98667 14.72 6.56 14.72H4.48V24H0.736V0.959999H7.52C9.03467 0.959999 10.336 1.11467 11.424 1.424C12.5227 1.73333 13.424 2.176 14.128 2.752C14.832 3.31733 15.3493 4 15.68 4.8C16.0213 5.6 16.192 6.49067 16.192 7.472C16.192 8.272 16.0693 9.01867 15.824 9.712C15.5893 10.4053 15.2427 11.0347 14.784 11.6C14.336 12.1653 13.7813 12.656 13.12 13.072C12.4587 13.488 11.7067 13.8133 10.864 14.048C11.3227 14.3253 11.7173 14.7147 12.048 15.216L18.272 24ZM28.8785 16.864C27.6518 16.9067 26.6172 17.008 25.7745 17.168C24.9318 17.3173 24.2492 17.5147 23.7265 17.76C23.2038 17.9947 22.8252 18.2773 22.5905 18.608C22.3665 18.9387 22.2545 19.3013 22.2545 19.696C22.2545 20.08 22.3132 20.4107 22.4305 20.688C22.5585 20.9547 22.7292 21.1787 22.9425 21.36C23.1665 21.5307 23.4225 21.6587 23.7105 21.744C24.0092 21.8187 24.3345 21.856 24.6865 21.856C25.5825 21.856 26.3505 21.6907 26.9905 21.36C27.6412 21.0187 28.2705 20.528 28.8785 19.888V16.864ZM19.7585 9.952C21.6038 8.23467 23.8012 7.376 26.3505 7.376C27.2892 7.376 28.1212 7.53067 28.8465 7.84C29.5825 8.13867 30.1958 8.56533 30.6865 9.12C31.1878 9.67467 31.5665 10.336 31.8225 11.104C32.0892 11.8613 32.2225 12.704 32.2225 13.632V24H30.6865C30.3558 24 30.1052 23.952 29.9345 23.856C29.7638 23.7493 29.6198 23.5413 29.5025 23.232L29.1665 21.904C28.7505 22.2773 28.3398 22.6133 27.9345 22.912C27.5292 23.2 27.1078 23.4453 26.6705 23.648C26.2438 23.8507 25.7798 24 25.2785 24.096C24.7878 24.2027 24.2438 24.256 23.6465 24.256C22.9852 24.256 22.3665 24.1653 21.7905 23.984C21.2252 23.8027 20.7345 23.5307 20.3185 23.168C19.9025 22.7947 19.5718 22.336 19.3265 21.792C19.0918 21.248 18.9745 20.608 18.9745 19.872C18.9745 19.2427 19.1398 18.6293 19.4705 18.032C19.8118 17.4347 20.3665 16.9013 21.1345 16.432C21.9132 15.952 22.9318 15.5573 24.1905 15.248C25.4598 14.9387 27.0225 14.7627 28.8785 14.72V13.632C28.8785 12.4587 28.6278 11.584 28.1265 11.008C27.6252 10.432 26.8892 10.144 25.9185 10.144C25.2572 10.144 24.7025 10.2293 24.2545 10.4C23.8065 10.56 23.4172 10.736 23.0865 10.928C22.7558 11.12 22.4625 11.3013 22.2065 11.472C21.9505 11.632 21.6785 11.712 21.3905 11.712C21.1558 11.712 20.9532 11.6533 20.7825 11.536C20.6225 11.408 20.4892 11.2533 20.3825 11.072L19.7585 9.952ZM45.9963 10.64C45.9109 10.7893 45.8149 10.896 45.7083 10.96C45.6016 11.024 45.4683 11.056 45.3083 11.056C45.1269 11.056 44.9296 11.0027 44.7163 10.896C44.5029 10.7787 44.2523 10.6507 43.9643 10.512C43.6763 10.3733 43.3349 10.2507 42.9403 10.144C42.5563 10.0267 42.1029 9.968 41.5803 9.968C41.1536 9.968 40.7643 10.0213 40.4123 10.128C40.0709 10.224 39.7776 10.368 39.5323 10.56C39.2976 10.7413 39.1163 10.96 38.9883 11.216C38.8603 11.4613 38.7963 11.728 38.7963 12.016C38.7963 12.4 38.9136 12.72 39.1483 12.976C39.3829 13.232 39.6923 13.456 40.0763 13.648C40.4603 13.8293 40.8976 13.9947 41.3883 14.144C41.8789 14.2933 42.3803 14.4533 42.8923 14.624C43.4043 14.7947 43.9056 14.992 44.3963 15.216C44.8869 15.44 45.3243 15.7173 45.7083 16.048C46.0923 16.368 46.4016 16.7627 46.6363 17.232C46.8709 17.6907 46.9883 18.2507 46.9883 18.912C46.9883 19.68 46.8496 20.3893 46.5723 21.04C46.2949 21.6907 45.8896 22.256 45.3563 22.736C44.8229 23.216 44.1563 23.5893 43.3563 23.856C42.5669 24.1227 41.6603 24.256 40.6363 24.256C40.0709 24.256 39.5216 24.2027 38.9883 24.096C38.4656 24 37.9643 23.8667 37.4843 23.696C37.0149 23.5147 36.5723 23.3013 36.1562 23.056C35.7509 22.8107 35.3883 22.544 35.0683 22.256L35.8683 20.944C35.9643 20.784 36.0816 20.6613 36.2203 20.576C36.3696 20.48 36.5509 20.432 36.7643 20.432C36.9883 20.432 37.2069 20.5067 37.4203 20.656C37.6443 20.7947 37.9003 20.9493 38.1883 21.12C38.4869 21.2907 38.8443 21.4507 39.2603 21.6C39.6763 21.7387 40.1936 21.808 40.8123 21.808C41.3243 21.808 41.7669 21.7493 42.1403 21.632C42.5136 21.504 42.8229 21.3333 43.0683 21.12C43.3136 20.9067 43.4949 20.6667 43.6123 20.4C43.7296 20.1227 43.7883 19.8293 43.7883 19.52C43.7883 19.104 43.6709 18.7627 43.4363 18.496C43.2016 18.2293 42.8869 18 42.4923 17.808C42.1083 17.616 41.6656 17.4453 41.1643 17.296C40.6736 17.1467 40.1723 16.9867 39.6603 16.816C39.1483 16.6453 38.6416 16.448 38.1403 16.224C37.6496 16 37.2069 15.7173 36.8123 15.376C36.4283 15.024 36.1189 14.6027 35.8843 14.112C35.6496 13.6107 35.5323 13.0027 35.5323 12.288C35.5323 11.6373 35.6603 11.0187 35.9163 10.432C36.1829 9.84533 36.5669 9.328 37.0683 8.88C37.5803 8.432 38.2043 8.08 38.9403 7.824C39.6869 7.55733 40.5456 7.424 41.5163 7.424C42.6149 7.424 43.6123 7.6 44.5083 7.952C45.4043 8.304 46.1563 8.784 46.7643 9.392L45.9963 10.64ZM58.941 16.864C57.7143 16.9067 56.6797 17.008 55.837 17.168C54.9943 17.3173 54.3117 17.5147 53.789 17.76C53.2663 17.9947 52.8877 18.2773 52.653 18.608C52.429 18.9387 52.317 19.3013 52.317 19.696C52.317 20.08 52.3757 20.4107 52.493 20.688C52.621 20.9547 52.7917 21.1787 53.005 21.36C53.229 21.5307 53.485 21.6587 53.773 21.744C54.0717 21.8187 54.397 21.856 54.749 21.856C55.645 21.856 56.413 21.6907 57.053 21.36C57.7037 21.0187 58.333 20.528 58.941 19.888V16.864ZM49.821 9.952C51.6663 8.23467 53.8637 7.376 56.413 7.376C57.3517 7.376 58.1837 7.53067 58.909 7.84C59.645 8.13867 60.2583 8.56533 60.749 9.12C61.2503 9.67467 61.629 10.336 61.885 11.104C62.1517 11.8613 62.285 12.704 62.285 13.632V24H60.749C60.4183 24 60.1677 23.952 59.997 23.856C59.8263 23.7493 59.6823 23.5413 59.565 23.232L59.229 21.904C58.813 22.2773 58.4023 22.6133 57.997 22.912C57.5917 23.2 57.1703 23.4453 56.733 23.648C56.3063 23.8507 55.8423 24 55.341 24.096C54.8503 24.2027 54.3063 24.256 53.709 24.256C53.0477 24.256 52.429 24.1653 51.853 23.984C51.2877 23.8027 50.797 23.5307 50.381 23.168C49.965 22.7947 49.6343 22.336 49.389 21.792C49.1543 21.248 49.037 20.608 49.037 19.872C49.037 19.2427 49.2023 18.6293 49.533 18.032C49.8743 17.4347 50.429 16.9013 51.197 16.432C51.9757 15.952 52.9943 15.5573 54.253 15.248C55.5223 14.9387 57.085 14.7627 58.941 14.72V13.632C58.941 12.4587 58.6903 11.584 58.189 11.008C57.6877 10.432 56.9517 10.144 55.981 10.144C55.3197 10.144 54.765 10.2293 54.317 10.4C53.869 10.56 53.4797 10.736 53.149 10.928C52.8183 11.12 52.525 11.3013 52.269 11.472C52.013 11.632 51.741 11.712 51.453 11.712C51.2183 11.712 51.0157 11.6533 50.845 11.536C50.685 11.408 50.5517 11.2533 50.445 11.072L49.821 9.952Z" fill="white"/>
</svg>
